<svg width="27" height="27" viewBox="0 0 27 27" fill="none" xmlns="http://www.w3.org/2000/svg">
<rect x="1.12943" y="1.45365" width="24.0946" height="24.0946" rx="12.0473" stroke="#007BFF" stroke-width="2.25887"/>
<path d="M2.25977 18.8781L8.03568 14.508L12.1323 17.4767L17.9821 13.125L24.5146 18.4356L22.7615 21.8653L18.2958 15.4115L12.1323 20.427L8.03568 16.9235L4.43727 21.2753L2.25977 18.8781Z" fill="#007BFF"/>
<path d="M6.40046 10.1133L6.90887 11.4873L8.28284 11.9957L6.90887 12.5041L6.40046 13.8781L5.89204 12.5041L4.51807 11.9957L5.89204 11.4873L6.40046 10.1133Z" fill="#007BFF"/>
<path d="M10.5411 4.8418L11.3546 7.04015L13.5529 7.85362L11.3546 8.66708L10.5411 10.8654L9.72765 8.66708L7.5293 7.85362L9.72765 7.04015L10.5411 4.8418Z" fill="#007BFF"/>
</svg>
